<svg width="63" height="60" fill="none" xmlns="http://www.w3.org/2000/svg"><circle cx="30.5" cy="30" r="30" fill="#F5F5F5"/><path d="M28.671 43.33a4.06 4.06 0 001.452 1.228 4.142 4.142 0 003.726 0 4.057 4.057 0 001.452-1.228L62.306 6.598c.487-.667 0-1.598-.834-1.598H55.46a4.11 4.11 0 00-3.322 1.673L31.992 34.096l-9.13-12.428a4.126 4.126 0 00-3.32-1.673h-6.015c-.833 0-1.32.93-.833 1.597L28.671 43.33z" fill="#377E66"/><path d="M28.671 43.33a4.06 4.06 0 001.452 1.228 4.142 4.142 0 003.726 0 4.057 4.057 0 001.452-1.228L62.306 6.598c.487-.667 0-1.598-.834-1.598H55.46a4.11 4.11 0 00-3.322 1.673L31.992 34.096l-9.13-12.428a4.126 4.126 0 00-3.32-1.673h-6.015c-.833 0-1.32.93-.833 1.597L28.671 43.33z" fill="url(#paint0_linear_207_8788)"/><defs><linearGradient id="paint0_linear_207_8788" x1="25.453" y1="53.947" x2="62.67" y2="50.175" gradientUnits="userSpaceOnUse"><stop stop-color="#FDC32E"/><stop offset=".422" stop-color="#FFE7A8"/><stop offset=".729" stop-color="#FFE6A6"/><stop offset="1" stop-color="#FDC32E"/></linearGradient></defs></svg>