<svg width="84" height="64" fill="none" xmlns="http://www.w3.org/2000/svg"><g clip-path="url(#clip0_156_1710)"><path d="M46.12 21.22h-8.05a2.373 2.373 0 00-2.367 2.38v2.568a2.373 2.373 0 002.368 2.38h8.05a2.373 2.373 0 002.367-2.38V23.6a2.373 2.373 0 00-2.368-2.379zM81.632.476H2.367A1.899 1.899 0 00.473 2.379v15.035c0 1.051.848 1.903 1.894 1.903h79.265a1.899 1.899 0 001.894-1.903V2.379A1.899 1.899 0 0081.632.476z" stroke="#FFC700" stroke-width="1.026"/><path d="M52.13 38.777c.761 0 1.234.362 1.32.781.09.438-.168 1.234-1.543 2.242a9.881 9.881 0 01-.592.403c-.444.282-.926.546-1.431.792-.656.318-1.348.603-2.045.852a23.94 23.94 0 01-3.028.86c-.538.112-1.038.195-1.48.245a9.72 9.72 0 01-.547.047 5.665 5.665 0 01-.36.011c-.308 0-.71-.029-1.183-.087a23.603 23.603 0 01-2.05-.357 29.523 29.523 0 01-2.524-.663 23.334 23.334 0 01-2.144-.779 14.06 14.06 0 01-1.844-.93 8.576 8.576 0 01-.59-.394c-1.374-1.008-1.631-1.804-1.542-2.242.086-.42.559-.78 1.32-.78H52.13z" stroke="#FFC700" stroke-width=".821"/><path d="M48.624 24.17h9.378c.379-.015 1.24.038 1.657.381m-24.433-.38h-3.458m-3.734 38.443a3.228 3.228 0 003.22-3.235 3.228 3.228 0 00-3.22-3.235 3.228 3.228 0 00-3.22 3.235 3.228 3.228 0 003.22 3.235z" stroke="#FFC700" stroke-width="1.026"/><path d="M23.866 31.973a2.848 2.848 0 002.841-2.854 2.848 2.848 0 00-2.84-2.855 2.848 2.848 0 00-2.842 2.855 2.848 2.848 0 002.841 2.854zM3.218 3.996a1.14 1.14 0 001.137-1.141 1.14 1.14 0 00-1.137-1.142 1.14 1.14 0 00-1.136 1.142c0 .63.509 1.141 1.136 1.141zm77.562 0a1.14 1.14 0 001.137-1.141 1.14 1.14 0 00-1.136-1.142 1.14 1.14 0 00-1.137 1.142c0 .63.51 1.141 1.137 1.141zM3.218 18.08a1.14 1.14 0 001.137-1.142 1.14 1.14 0 00-1.137-1.142 1.14 1.14 0 00-1.136 1.142 1.14 1.14 0 001.136 1.142zm77.562 0a1.14 1.14 0 001.137-1.142 1.14 1.14 0 00-1.136-1.142 1.14 1.14 0 00-1.137 1.142c0 .631.51 1.142 1.137 1.142zM60.423 31.973a2.848 2.848 0 002.841-2.854 2.848 2.848 0 00-2.84-2.855 2.848 2.848 0 00-2.842 2.855 2.848 2.848 0 002.841 2.854zM40.058 12.466c1.255 0 2.273-1.066 2.273-2.38 0-1.313-1.018-2.378-2.273-2.378-1.255 0-2.273 1.065-2.273 2.379 0 1.313 1.018 2.379 2.273 2.379z" fill="#FFC700"/><mask id="a" style="mask-type:luminance" maskUnits="userSpaceOnUse" x="65" y="18" width="17" height="10"><path d="M80.21 19.365a6.736 6.736 0 01-1.955 4.744 6.671 6.671 0 01-4.721 1.964 6.647 6.647 0 01-4.721-1.965 6.71 6.71 0 01-1.956-4.743H80.21z" stroke="#fff" stroke-width="2.052"/></mask><g mask="url(#a)"><path d="M80.21 19.365a6.736 6.736 0 01-1.955 4.744 6.671 6.671 0 01-4.721 1.964 6.647 6.647 0 01-4.721-1.965 6.71 6.71 0 01-1.956-4.743H80.21z" stroke="#FFC700" stroke-width="2.052"/></g><path d="M23.865 33.591c2.458 0 4.451-2.002 4.451-4.472 0-2.47-1.993-4.473-4.451-4.473-2.458 0-4.45 2.003-4.45 4.473 0 2.47 1.992 4.472 4.45 4.472z" stroke="#FFC700" stroke-width="1.026"/><path d="M23.866 36.446c4.027 0 7.292-3.281 7.292-7.328 0-4.046-3.265-7.327-7.292-7.327-4.027 0-7.292 3.28-7.292 7.327 0 4.047 3.265 7.328 7.292 7.328z" stroke="#FFC700" stroke-width="1.026"/><path d="M23.87 38.444c5.126 0 9.281-4.175 9.281-9.326 0-5.15-4.155-9.325-9.28-9.325-5.126 0-9.281 4.175-9.281 9.325 0 5.15 4.155 9.326 9.28 9.326z" stroke="#FFC700" stroke-width="1.026"/><path d="M28.032 61.187c.994 0 1.8-.81 1.8-1.808 0-.999-.806-1.808-1.8-1.808s-1.8.81-1.8 1.808.806 1.808 1.8 1.808zm28.033 0c.994 0 1.8-.81 1.8-1.808 0-.999-.806-1.808-1.8-1.808s-1.8.81-1.8 1.808.806 1.808 1.8 1.808z" fill="#FFC700"/><path d="M56.065 61.187c.994 0 1.8-.81 1.8-1.808 0-.999-.806-1.808-1.8-1.808s-1.8.81-1.8 1.808.806 1.808 1.8 1.808z" fill="#FFC700"/><path d="M56.064 62.614a3.228 3.228 0 003.22-3.235 3.228 3.228 0 00-3.22-3.235 3.228 3.228 0 00-3.22 3.235 3.228 3.228 0 003.22 3.235z" stroke="#FFC700" stroke-width="1.026"/><path d="M60.796 49.625c.43.264 1.137.907 1.54 1.856m-1.54-1.856h-2.935m2.935 0c1.504-.533 1.797-2.315 1.756-3.14v-.476m-.215 5.472c.204.48.331 1.038.306 1.665-.076 1.865-1.957 2.839-2.888 3.093H24.387c-.931-.254-2.813-1.228-2.888-3.093a3.824 3.824 0 01.326-1.713m40.512.048l-40.512-.048m36.036-1.808H23.345c-.422.259-1.112.886-1.52 1.808m36.036-1.808V35.018m4.69 10.991v-6.518m0 6.518c.551-.07 1.309-.221 2.178-.473m-40.484 7.61h2.51m.9 0h2.509m.9 0h2.51m.899 0h2.51m.757 0h2.51m.947 0h2.509m.9 0h2.51m.899 0h2.51m.947 0h2.51m.899 0h2.509m3.41 0h-2.51m-.43-18.128h4.692m-4.691 0H34.378m28.174 0v4.473m0-4.473v-1.76m-28.174 1.76h-3.22m3.22 0v-2.474m28.174 6.947c.15-.02.326-.051.52-.096M36.84 35.018v-2.474m2.936 2.474v-2.474m2.652 2.474v-2.474m2.462 2.474v-2.474m2.935 2.474v-2.474m2.463 2.474v-2.474m2.462 2.474v-2.474m2.936 2.474v-2.474m7.386 6.851a9.32 9.32 0 001.657-.567m-1.657.567c.11 1.43.596 4.66 1.657 6.141m5.683-20.51c.175.658.35 1.614.43 2.713m0 0h6.011m-6.01 0c.044.6.06 1.242.033 1.903M64.73 45.536l.284-.084a19.342 19.342 0 002.557-.986m8.855-19.44c.252.675.377 1.68.428 2.713m0 0c.032.648.035 1.307.023 1.903M21.593 39.49c-1.358-.175-4.612-1.313-6.771-4.473-2.16-3.159-1.531-8.263-.995-10.277m7.766 21.268c-2.005-.254-6.743-1.589-9.66-4.9-2.917-3.312-4.429-7.851-4.593-9.945-.11-1.411-.19-4.615.379-6.137m57.01 13.801c.482-.214.995-.484 1.515-.82m-1.515.82c.284 1.587 1.25 4.936 2.841 5.638m3.306-14.824h6m-6 0c-.014.345-.04.695-.08 1.047m6.08-1.047a27.65 27.65 0 01-.072 1.522 7.888 7.888 0 01-.092.714m-5.915-1.19a11.788 11.788 0 01-.28 1.57m.28-1.57c1.467.35 4.705 1.076 5.915 1.19m0 0a15.617 15.617 0 01-.571 2.206m-5.624-1.825c1.275.519 4.184 1.611 5.624 1.825m-5.624-1.825a9.89 9.89 0 01-.32 1.046m5.944.78a21.948 21.948 0 01-.897 2.265m-5.048-3.045c.895.825 3.157 2.589 5.048 3.045m-5.048-3.045c-.171.463-.38.91-.63 1.333m5.678 1.712a21.894 21.894 0 01-1.103 2.094m-4.576-3.806a7.12 7.12 0 01-.242.38c-.212.31-.434.6-.664.872m.906-1.252c.764 1.062 2.749 3.311 4.576 3.806m0 0a19.1 19.1 0 01-1.19 1.76M68.66 35.89c.526 1.042 2.12 3.363 4.292 4.314M68.66 35.89c-.404.478-.833.9-1.27 1.27m5.562 3.044c-.235.31-.482.612-.74.904a11.12 11.12 0 01-.588.619m-4.234-4.568c.572 1.126 2.22 3.616 4.234 4.568m-4.234-4.568c-.378.32-.763.602-1.145.849m5.379 3.719a13.176 13.176 0 01-1.78 1.448m-3.599-5.167c.49 1.3 1.894 4.155 3.599 5.167m0 0c-.74.505-1.511.932-2.273 1.29M13.326 27.74h-6.01m5.976 1.903h-6m6.36 2.617c-1.275.519-4.184 1.611-5.624 1.825m5.944-.779c-.894.825-3.156 2.589-5.048 3.045m5.68-1.712c-.765 1.062-2.749 3.311-4.576 3.806m5.481-2.554c-.525 1.042-2.12 3.363-4.292 4.314m5.562-3.045c-.572 1.126-2.219 3.616-4.233 4.568m5.378-3.72c-.489 1.302-1.894 4.156-3.598 5.168m5.113-4.346c-.284 1.586-1.25 4.935-2.84 5.637m4.498-5.07c-.11 1.429-.597 4.658-1.658 6.14M13.372 30.69c-1.468.349-4.705 1.075-5.915 1.189m15.892 17.747h2.936v-10.8h-4.691v7.66c-.042.825.252 2.607 1.755 3.14z" stroke="#FFC700" stroke-width="1.026"/><path d="M7.77 4.284V15.15H5.485V4.284h2.287zm10.554 0V15.15H16.35l-4.705-6.84h-.08v6.839H9.28V4.284h2.006l4.668 6.834h.095V4.284h2.275zm1.517 10.866V4.284h7.287v1.894h-5v2.59h4.625v1.893h-4.625v2.595h5.02v1.894h-7.307zm8.32-8.972V4.284h8.881v1.894h-3.31v8.972h-2.26V6.178h-3.31zm16.111 8.972V4.284h2.286v4.483H51.2V4.284h2.281V15.15H51.2v-4.49h-4.642v4.489h-2.286zm10.721 0V4.284h7.287v1.894h-5v2.59h4.625v1.893H57.28v2.595h5.02v1.894h-7.307zm8.732 0V4.284h2.287v8.972h4.635v1.894h-6.922zm8.065 0V4.284h4.266c.82 0 1.519.158 2.096.472a3.19 3.19 0 011.32 1.3c.306.552.46 1.189.46 1.91 0 .722-.156 1.358-.465 1.91a3.21 3.21 0 01-1.347 1.29c-.584.307-1.292.46-2.122.46h-2.72v-1.84h2.35c.44 0 .803-.076 1.088-.228.288-.156.503-.37.644-.642.144-.276.216-.593.216-.95 0-.36-.072-.675-.216-.944a1.449 1.449 0 00-.644-.631c-.289-.153-.655-.229-1.098-.229h-1.542v8.988H71.79z" fill="#FFC700"/><path d="M7.77 4.284V15.15H5.485V4.284h2.287zm10.554 0V15.15H16.35l-4.705-6.84h-.08v6.839H9.28V4.284h2.006l4.668 6.834h.095V4.284h2.275zm1.517 10.866V4.284h7.287v1.894h-5v2.59h4.625v1.893h-4.625v2.595h5.02v1.894h-7.307zm8.32-8.972V4.284h8.881v1.894h-3.31v8.972h-2.26V6.178h-3.31zm16.111 8.972V4.284h2.286v4.483H51.2V4.284h2.281V15.15H51.2v-4.49h-4.642v4.489h-2.286zm10.721 0V4.284h7.287v1.894h-5v2.59h4.625v1.893H57.28v2.595h5.02v1.894h-7.307zm8.732 0V4.284h2.287v8.972h4.635v1.894h-6.922zm8.065 0V4.284h4.266c.82 0 1.519.158 2.096.472a3.19 3.19 0 011.32 1.3c.306.552.46 1.189.46 1.91 0 .722-.156 1.358-.465 1.91a3.21 3.21 0 01-1.347 1.29c-.584.307-1.292.46-2.122.46h-2.72v-1.84h2.35c.44 0 .803-.076 1.088-.228.288-.156.503-.37.644-.642.144-.276.216-.593.216-.95 0-.36-.072-.675-.216-.944a1.449 1.449 0 00-.644-.631c-.289-.153-.655-.229-1.098-.229h-1.542v8.988H71.79z" fill="#FFC700"/><mask id="b" style="mask-type:luminance" maskUnits="userSpaceOnUse" x="2" y="18" width="17" height="10"><path d="M17.331 19.365a6.738 6.738 0 01-1.955 4.744 6.672 6.672 0 01-4.721 1.964 6.648 6.648 0 01-4.721-1.965 6.711 6.711 0 01-1.955-4.743H17.33z" stroke="#fff" stroke-width="2.052"/></mask><g mask="url(#b)"><path d="M17.331 19.365a6.738 6.738 0 01-1.955 4.744 6.672 6.672 0 01-4.721 1.964 6.648 6.648 0 01-4.721-1.965 6.711 6.711 0 01-1.955-4.743H17.33z" stroke="#FFC700" stroke-width="2.052"/></g><path d="M60.417 33.686c2.51 0 4.545-2.045 4.545-4.567 0-2.523-2.035-4.568-4.545-4.568s-4.546 2.045-4.546 4.568c0 2.522 2.035 4.567 4.546 4.567z" stroke="#FFC700" stroke-width="1.026"/></g><defs><clipPath id="clip0_156_1710"><path fill="#fff" d="M0 0h84v64H0z"/></clipPath></defs></svg>