<svg width="81" height="25" fill="none" xmlns="http://www.w3.org/2000/svg"><path d="M61.456 20.256h2.6v-2.39l-2.6 2.39zm1.781-2.694l-6.564.02c.025-.92 1.52-1.693 3.28-2.697 1.93-1.102 3.994-2.528 3.994-4.93 0-2.902-2.408-4.201-5.388-4.201a8.857 8.857 0 00-5.084 1.504v2.926c1.563-1.146 3.294-1.692 4.78-1.692 1.485 0 2.448.541 2.448 1.585 0 1.36-1.326 1.926-2.864 2.78-2.175 1.236-4.866 2.572-4.866 5.997v1.402h6.412l3.852-2.694z" fill="#fff"/><path d="M23.588 5.845L13.095 15.49l-.572-1.902-5.07 3.546-4.156 2.908c2.003 2.466 4.923 4.087 8.145 4.522 3.222.434 6.493-.353 9.123-2.194 2.63-1.842 4.414-4.594 4.975-7.677.562-3.082-.144-6.254-1.967-8.846l.015-.002zm-1.865 6.68l-3.934 2.64 3.987-3.73 1.863 2.507-1.916-1.417zM9.41 14.091l-1.83-1.283-4.886 3.506 4.904-4.876 1.977 2.492 4.088-3.98.705 2.346 9.22-6.451a12.333 12.333 0 00-3.571-3.367A12.84 12.84 0 0015.362.721a13.03 13.03 0 00-4.998.131 12.784 12.784 0 00-4.548 1.999A12.256 12.256 0 002.44 6.399a11.774 11.774 0 00-1.666 4.535 11.625 11.625 0 00.307 4.801 11.896 11.896 0 002.231 4.305l6.098-5.95z" fill="#FB0"/><path d="M36.448 6.285l1.039 3.452 5.862-4.103h-6.901v.658-.007zm9.6 6.242c1.344-.44 2.307-1.488 2.307-3.194 0-1.968-1.247-3.121-3.34-3.529l-2.611 2.397h.405c1.437 0 2.307.522 2.307 1.673 0 1.15-.887 1.672-2.13 1.672h-3.281v-.863l-3.26 3v6.582h6.54c2.648 0 5.97-.775 5.97-4.096 0-2.16-1.411-3.226-2.91-3.643h.003zm-3.107 5.183h-3.26v-3.762h3.433c1.302 0 2.585.334 2.585 1.877 0 1.593-1.303 1.885-2.758 1.885zM68.49 6.285l1.039 3.452 5.875-4.1h-6.92v.658l.006-.01zm9.6 6.242c1.344-.44 2.307-1.488 2.307-3.194 0-1.968-1.247-3.121-3.34-3.529l-2.611 2.397h.405c1.437 0 2.307.522 2.307 1.673 0 1.15-.887 1.672-2.13 1.672h-3.281v-.863l-3.26 3v6.582h6.54c2.653 0 5.975-.775 5.975-4.096 0-2.16-1.411-3.226-2.91-3.643h-.002zm-3.107 5.183h-3.26v-3.762h3.427c1.303 0 2.586.334 2.586 1.877.005 1.593-1.298 1.885-2.753 1.885z" fill="#fff"/></svg>